<?xml version="1.0" encoding="UTF-8"?>
<svg xmlns="http://www.w3.org/2000/svg" width="48" height="48" viewBox="0 0 48 48" fill="none">
  <path d="M44 24C44 22.167 43.256 20.439 41.966 19.186C42.457 17.455 42.237 15.586 41.32 14C40.404 12.413 38.896 11.289 37.152 10.848C36.712 9.104 35.587 7.597 34 6.68C32.414 5.763 30.545 5.543 28.813 6.034C27.561 4.744 25.832 4 24 4C22.168 4 20.439 4.744 19.187 6.034C17.457 5.544 15.587 5.764 14 6.68C12.413 7.597 11.288 9.105 10.848 10.848C9.104 11.289 7.596 12.413 6.68 14C5.764 15.586 5.543 17.455 6.034 19.186C4.744 20.439 4 22.167 4 24C4 25.833 4.744 27.561 6.034 28.814C5.543 30.545 5.764 32.414 6.68 34C7.596 35.587 9.104 36.711 10.848 37.152C11.288 38.896 12.413 40.404 14 41.32C15.585 42.235 17.454 42.456 19.186 41.966C20.439 43.256 22.168 44 24 44C25.832 44 27.561 43.256 28.814 41.966C30.545 42.456 32.414 42.236 34 41.32C35.587 40.403 36.712 38.895 37.152 37.152C38.896 36.712 40.404 35.587 41.32 34C42.236 32.414 42.457 30.545 41.966 28.814C43.256 27.561 44 25.833 44 24ZM18 27C18 27.44 17.711 27.83 17.29 27.957C17.194 27.987 17.097 28 17 28C16.672 28 16.357 27.838 16.168 27.555L14 24.303V27C14 27.552 13.552 28 13 28C12.448 28 12 27.552 12 27V21C12 20.56 12.289 20.17 12.71 20.043C13.131 19.915 13.586 20.078 13.832 20.445L16 23.697V21C16 20.448 16.448 20 17 20C17.552 20 18 20.448 18 21V27ZM24.5 23C25.052 23 25.5 23.448 25.5 24C25.5 24.552 25.052 25 24.5 25H23V26H25C25.552 26 26 26.448 26 27C26 27.552 25.552 28 25 28H22C21.448 28 21 27.552 21 27V21C21 20.448 21.448 20 22 20H25C25.552 20 26 20.448 26 21C26 21.552 25.552 22 25 22H23V23H24.5ZM34.986 27.165C34.919 27.57 34.611 27.892 34.21 27.978C34.14 27.993 34.069 28 34 28C33.67 28 33.355 27.836 33.168 27.555L32 25.803L30.832 27.555C30.604 27.896 30.193 28.064 29.79 27.978C29.389 27.892 29.081 27.57 29.014 27.165L28.014 21.165C27.923 20.62 28.291 20.105 28.836 20.014C29.386 19.924 29.896 20.292 29.987 20.836L30.571 24.342L31.168 23.446C31.539 22.889 32.461 22.889 32.832 23.446L33.43 24.342L34.014 20.836C34.104 20.292 34.617 19.925 35.164 20.014C35.709 20.105 36.077 20.62 35.986 21.165L34.986 27.165Z" fill="#FFFF00"></path>
</svg>
