<?xml version="1.0" encoding="UTF-8"?>
<svg xmlns="http://www.w3.org/2000/svg" width="60" height="60" viewBox="0 0 60 60" fill="none">
  <g opacity="0.95">
    <rect width="60" height="60" rx="30" fill="#6DFCFF"></rect>
    <g clip-path="url(#clip0_35_806)">
      <g clip-path="url(#clip1_35_806)">
        <path d="M18.5345 44.1387L15.5115 47.0137L12.74 44.6367L15.5115 41.6335M18.5345 44.1387C21.7548 42.5852 25.2759 42.1315 28.4863 40.6422C34.7 37.7721 38.6304 34.0241 41.4463 27.9978C42.7433 25.2313 42.472 22.8691 44.7405 18.1151M18.5345 44.1387C17.0699 43.9759 16.3499 43.6061 15.8715 42.6345M15.5115 41.6335C17.1142 38.8274 17.0452 35.7502 18.2781 32.8751C20.9756 26.5776 24.8222 22.5682 31.1394 19.4367C34.6063 17.7107 38.5663 17.0548 42.1022 15.3633M15.5115 41.6335C15.6028 41.9774 15.7249 42.3125 15.8764 42.6345C17.1586 40.8592 18.3422 39.0493 19.9499 36.628C21.5822 34.3496 23.2885 32.2685 25.843 29.7485M42.1022 15.3633L44.7504 12.9863L47.2655 15.3633L44.7455 18.1151C44.4249 16.5222 43.8825 15.8959 42.1022 15.3633ZM17.1488 43.5124C30.1334 35.4247 35.9279 29.5414 43.986 16.9907M30.1285 25.4976C32.7077 22.9677 35.1389 21.0691 42.9751 15.9896M27.7367 27.8745L28.1115 27.4998" stroke="#1E232E" stroke-width="1.47945" stroke-linecap="round" stroke-linejoin="round"></path>
      </g>
    </g>
  </g>
  <defs>
    <clipPath id="clip0_35_806">
      <rect width="36" height="36" fill="white" transform="translate(12 12)"></rect>
    </clipPath>
    <clipPath id="clip1_35_806">
      <rect width="36" height="36" fill="white" transform="translate(12 12)"></rect>
    </clipPath>
  </defs>
</svg>
