<?xml version="1.0" encoding="UTF-8"?>
<svg xmlns="http://www.w3.org/2000/svg" width="60" height="60" viewBox="0 0 60 60" fill="none">
  <g opacity="0.95">
    <rect width="60" height="60" rx="30" fill="#6DFCFF"></rect>
    <g clip-path="url(#clip0_35_819)">
      <g clip-path="url(#clip1_35_819)">
        <path d="M19.8489 12.7326C19.8981 14.7026 20.4874 16.6212 21.5526 18.2791M21.5526 18.2791C23.8131 21.6907 23.6373 27.9614 21.5233 31.3605M21.5526 18.2791C27.0112 17.2326 30.2763 17.2158 36.4884 18.2791M21.5233 31.3605C20.9205 32.227 20.5605 33.5707 20.3721 35.0526M21.5233 31.3605C28.6521 33.5623 32.7084 33.5121 39.8373 30.9419M20.3721 35.0526C19.6563 38.6023 20.1921 42.0433 21.9419 47.2675M20.3721 35.0526C26.174 37.2963 29.054 38.6442 30.2093 42.0349M39.8373 30.9419C40.4233 32.0219 40.5405 32.6707 40.5698 33.8721M39.8373 30.9419C37.2838 27.6349 36.4926 24.9391 36.4884 18.2791M36.4884 18.2791C37.8991 16.5042 38.167 15.173 38.3721 12.6279M30.2093 42.0349C32.1517 38.5856 35.2703 36.2791 40.5698 33.8721M30.2093 42.0349L30.628 47.3721M40.5698 33.8721C40.8796 39.5107 40.62 42.5247 38.5814 47.3721M46.7442 24.4535H39.1047M39.1047 24.4535L40.7791 22.9884M39.1047 24.4535L40.7791 25.9186M13.2559 24.4535H20.3721M20.3721 24.4535L19.1163 22.9884M20.3721 24.4535L19.1163 25.9186M24.1396 20.0582V20.7907M24.5582 21.9419V22.7791M24.9768 24.0349V24.7675M24.9768 25.9186V26.7558M24.5582 28.1163V28.7442M23.9303 29.8954V30.5233M30.314 28.9535V28.4303M37.1163 29.4768V30.1047M36.2791 28.4303V27.6977M35.4419 26.5465V25.814M34.814 24.5582V23.8256M34.7093 22.7791V21.9419M34.6047 20.7907V20.0582" stroke="#1E232E" stroke-width="1.25581" stroke-linecap="round" stroke-linejoin="round"></path>
      </g>
    </g>
  </g>
  <defs>
    <clipPath id="clip0_35_819">
      <rect width="36" height="36" fill="white" transform="translate(12 12)"></rect>
    </clipPath>
    <clipPath id="clip1_35_819">
      <rect width="36" height="36" fill="white" transform="translate(12 12)"></rect>
    </clipPath>
  </defs>
</svg>
